Simulation
nRows=34
nColumns=15
endheader
time  TH_x TH_y TH_z SC_y  SC_z  SC_x  AC_y  AC_z  AC_x  GH_y  GH_z  GH_yy  EL_x  PS_y
0.0  0.000000  0.000000  0.000000  -26.01732625339559  -4.137897303140689  -10.246280412931986  60.1353917678063  15.172805760673809  -5.621761632685341  -9.398218954408216  13.275433384246131  36.34437294478431  24.793005497110837  120.000000
0.04057971014492753  0.000000  0.000000  0.000000  -26.071380072224223  -3.652818989042341  -10.679643342674941  59.95663378190524  15.674300327510117  -5.084213497349904  -9.982712616064273  13.940038285778149  36.82293673237964  24.41993386304481  120.000000
0.08115942028985507  0.000000  0.000000  0.000000  -26.168924257771465  -3.2478305828641543  -11.092752441505796  59.8448002303451  16.040829850478897  -4.566511914750064  -10.528630773957905  14.574063692664087  37.28441022904769  24.060027282352085  120.000000
0.1217391304347826  0.000000  0.000000  0.000000  -26.362908446571215  -2.926751792615144  -11.491546503182747  59.82102735694749  16.310375681189463  -4.0573624274902205  -11.074588412519267  15.211261384349113  37.74075936963015  23.692558289541658  120.000000
0.16231884057971013  0.000000  0.000000  0.000000  -26.629860951350867  -2.682197227219615  -11.879497612903153  59.89360573829406  16.52668382868975  -3.554106415678484  -11.72365593596779  15.871264382484682  38.264528495446946  23.31512767193302  120.000000
0.20289855072463767  0.000000  0.000000  0.000000  -26.954786409222642  -2.491851150679123  -12.254981682244088  60.06674494483176  16.72638761672515  -3.054709576299775  -12.520669834432045  16.59161714763382  38.857108817618176  22.928509603798034  120.000000
0.2434782608695652  0.000000  0.000000  0.000000  -27.318268880055665  -2.3327290912606147  -12.610807071491966  60.32978074988568  16.94119937133771  -2.562486890282533  -13.489233212824185  17.414336889161504  39.48491733303926  22.538201389002722  120.000000
0.2840579710144927  0.000000  0.000000  0.000000  -27.70843577097427  -2.1881817256410856  -12.933292088465386  60.66911746295303  17.19504094025187  -2.0861784753079227  -14.631841770322696  18.382052470702163  40.098282581397534  22.14748915107889  120.000000
0.32463768115942027  0.000000  0.000000  0.000000  -28.11842045077286  -2.0435168536024855  -13.20282596260848  61.06516747793155  17.50373747181404  -1.63897122279508  -15.91745459496788  19.522880614720883  40.613102374983605  21.760588113814308  120.000000
0.3652173913043478  0.000000  0.000000  0.000000  -28.544708208820527  -1.8835023610775534  -13.39415139529627  61.497809815094556  17.876263523820054  -1.236782770467781  -17.294099583502664  20.845252376696497  40.935142149208524  21.380991494998803  120.000000
0.40579710144927533  0.000000  0.000000  0.000000  -28.98667863059633  -1.692693059044871  -13.477307751005553  61.94719406924663  18.315474081210212  -0.8959285921331476  -18.700386424434235  22.33639530077282  40.973192047802534  21.010523960935043  120.000000
0.44637681159420284  0.000000  0.000000  0.000000  -29.44395392068687  -1.457761684760162  -13.420909461254343  62.39606431039197  18.817454905654557  -0.6305822365297458  -20.080484401769805  23.96787154667873  40.66030966435022  20.64477219002645  120.000000
0.4869565217391304  0.000000  0.000000  0.000000  -29.91589393064034  -1.1706553089948883  -13.195850960821561  62.8324049260035  19.37139876897407  -0.4502867564674597  -21.392781667089714  25.704204914743276  39.9695844946741  20.268970937099525  120.000000
0.527536231884058  0.000000  0.000000  0.000000  -30.40185728175636  -0.8297767625396013  -12.779613667191073  63.250048890501205  19.959530740026022  -0.3578088767846959  -22.606966383374694  27.511725696523907  38.9150565063197  19.85757300879809  120.000000
0.5681159420289854  0.000000  0.000000  0.000000  -30.902053516278663  -0.43884009859224454  -12.158810926525353  63.64782330706802  20.559096794337535  -0.3482238844644363  -23.699663857728208  29.36453308906911  37.55008248731154  19.38051459464522  120.000000
0.608695652173913  0.000000  0.000000  0.000000  -31.417317512929657  -0.003950518821948  -11.330422331489526  64.02626762325707  21.144640763581176  -0.4090095472146068  -24.652123634909092  31.2475631675086  35.96232196525692  18.813895050288604  120.000000
0.6492753623188405  0.000000  0.000000  0.000000  -31.94885888534262  0.46922847903630766  -10.301452265827816  64.38488475713424  21.69073139591781  -0.5213261225335629  -25.450641489977954  33.156104870605105  34.26708297253847  18.147673215682104  120.000000
0.6898550724637681  0.000000  0.000000  0.000000  -32.4979585989296  0.9767077436868244  -9.088120889116553  64.72059477843877  22.17407316848463  -0.6620202785627191  -26.087972706465575  35.09274523319523  32.592908081959656  17.38701266504736  120.000000
0.7304347826086957  0.000000  0.000000  0.000000  -33.06726947478491  1.5160441611188453  -7.713604688139228  65.0295575922846  22.575661082944396  -0.8066034069076845  -26.56192564128859  37.06099540016542  31.058457081679947  16.546716724553747  120.000000
0.7710144927536231  0.000000  0.000000  0.000000  -33.66199914413954  2.0851636324128537  -6.205444283166518  65.31019131786424  22.882408980519592  -0.9317597652458987  -26.874302260453142  39.05949988034113  29.748995050933164  15.64485695641434  120.000000
0.8115942028985507  0.000000  0.000000  0.000000  -34.28854866992389  2.6811746202851645  -4.592953135921023  65.56459587984722  23.088931847204282  -1.0180663337022924  -27.031532496590575  41.07770102547608  28.70413383954701  14.699058096610742  120.000000
0.8521739130434782  0.000000  0.000000  0.000000  -34.95126322756077  3.2999468136750907  -2.905335404874142  65.79717257425777  23.197495772410978  -1.0509036469094275  -27.047736178289348  43.09648033639233  27.922988490060053  13.72733779818332  120.000000
0.8927536231884057  0.000000  0.000000  0.000000  -35.64974328322755  3.9367025105930553  -1.170741988803431  66.01149114893602  23.21701829386718  -1.020690219960654  -26.945915852458874  45.091123399529536  27.378670520571376  12.751775228572749  120.000000
0.9333333333333332  0.000000  0.000000  0.000000  -36.37762327358663  4.5861773689546785  0.5843760561795913  66.20717733688264  23.160859346830343  -0.9228750492631734  -26.756906199340992  47.03580865787719  27.03376586289292  11.801825637534721  120.000000
0.9739130434782608  0.000000  0.000000  0.000000  -37.124371384389256  5.242677007543639  2.3357254218215084  66.38019634582184  23.044739174551754  -0.7578678659666154  -26.5148617286784  48.9065117656211  26.85006876336128  10.912556753116021  120.000000
1.0144927536231882  0.000000  0.000000  0.000000  -37.878502426717304  5.899737543449351  4.061844622499946  66.52612192808422  22.88412230363112  -0.5300074162426248  -26.25081188982468  50.68278553023279  26.792076729122222  10.116468767943658  120.000000
1.055072463768116  0.000000  0.000000  0.000000  -38.629913247072835  6.5492252467215675  5.744177910977887  66.64477605146658  22.692804325723444  -0.24700314653952546  -25.98682457956279  52.347599073002634  26.826957974510684  9.431178537053583  120.000000
1.0956521739130434  0.000000  0.000000  0.000000  -39.3704756941173  7.1812737894730985  7.366704862476982  66.74254024250092  22.48168260309551  0.08150752707762891  -25.733569056496226  53.88690581129261  26.92493808597464  8.85154301826585  120.000000
1.1362318840579708  0.000000  0.000000  0.000000  -40.093216241846896  7.785145804968612  8.915185945906053  66.8311830179799  22.258785139205653  0.44476353928147805  -25.492370726925387  55.288875692823176  27.059725185747357  8.353348514168708  120.000000
1.1768115942028985  0.000000  0.000000  0.000000  -40.79069268154713  8.35090576144103  10.376640513262322  66.92347908009327  22.029750691151133  0.83153110886522  -25.26071041087365  56.54395215280681  27.208699244559227  7.907797366952903  120.000000
1.217391304347826  0.000000  0.000000  0.000000  -41.45381825653627  8.871078681738664  11.73929680979152  67.02826048405225  21.798876535241266  1.2303514440205827  -25.038438674948214  57.64505707410742  27.353513804411467  7.498207580267419  120.000000
1.2579710144927536  0.000000  0.000000  0.000000  -42.07162409422953  9.341144893870855  12.992726809153492  67.14775098403612  21.569670140679072  1.6294678695452496  -24.831121901688864  58.58849460524463  27.48043537291254  7.128231221452386  120.000000
1.298550724637681  0.000000  0.000000  0.000000  -42.6322082732562  9.7589129230866  14.128128041757158  67.2782857032224  21.34486673931373  2.016617011117095  -24.64886961102601  59.374415307291464  27.58093140349191  6.816620823831105  120.000000
1.3391304347826085  0.000000  0.000000  0.000000  -43.12418845860414  10.123421076166606  15.13831267917233  67.41312526314582  21.125793367802256  2.378850002868632  -24.501972445527194  60.00716312569151  27.652486922445437  6.583332872152936  120.000000
